<mxfile host="app.diagrams.net" modified="2024-03-08T13:19:03.833Z" agent="Mozilla/5.0 (Macintosh; Intel Mac OS X 10_15_7) AppleWebKit/537.36 (KHTML, like Gecko) Chrome/121.0.0.0 Safari/537.36" etag="MjUlCZUS4YzH1IPKN7ZS" version="24.0.2" type="device">
  <diagram id="R2lEEEUBdFMjLlhIrx00" name="Page-1">
    <mxGraphModel dx="2116" dy="1757" grid="1" gridSize="10" guides="1" tooltips="1" connect="1" arrows="1" fold="1" page="1" pageScale="1" pageWidth="850" pageHeight="1100" math="0" shadow="0" extFonts="Permanent Marker^https://fonts.googleapis.com/css?family=Permanent+Marker">
      <root>
        <mxCell id="0" />
        <mxCell id="1" parent="0" />
        <mxCell id="Ed32em5z93W1DroC9NEO-1" value="Airport" style="rounded=0;whiteSpace=wrap;html=1;" vertex="1" parent="1">
          <mxGeometry x="632.5" y="100" width="120" height="60" as="geometry" />
        </mxCell>
        <mxCell id="Ed32em5z93W1DroC9NEO-5" value="Airline" style="rounded=0;whiteSpace=wrap;html=1;" vertex="1" parent="1">
          <mxGeometry x="-190" y="100" width="110" height="50" as="geometry" />
        </mxCell>
        <mxCell id="Ed32em5z93W1DroC9NEO-7" value="Tickets" style="rounded=0;whiteSpace=wrap;html=1;" vertex="1" parent="1">
          <mxGeometry x="643.6600000000001" y="350" width="120" height="60" as="geometry" />
        </mxCell>
        <mxCell id="Ed32em5z93W1DroC9NEO-8" value="Passengers" style="whiteSpace=wrap;html=1;" vertex="1" parent="1">
          <mxGeometry x="137.5" y="355" width="120" height="60" as="geometry" />
        </mxCell>
        <mxCell id="Ed32em5z93W1DroC9NEO-9" value="Flights" style="whiteSpace=wrap;html=1;" vertex="1" parent="1">
          <mxGeometry x="172.03000000000003" y="100" width="120" height="60" as="geometry" />
        </mxCell>
        <mxCell id="Ed32em5z93W1DroC9NEO-10" value="Aircraft" style="whiteSpace=wrap;html=1;" vertex="1" parent="1">
          <mxGeometry x="-290" y="310" width="120" height="60" as="geometry" />
        </mxCell>
        <mxCell id="Ed32em5z93W1DroC9NEO-11" value="Aircraft type" style="whiteSpace=wrap;html=1;" vertex="1" parent="1">
          <mxGeometry x="-290" y="520" width="120" height="60" as="geometry" />
        </mxCell>
        <mxCell id="Ed32em5z93W1DroC9NEO-16" value="ALID" style="ellipse;whiteSpace=wrap;html=1;align=center;fontStyle=4;" vertex="1" parent="1">
          <mxGeometry x="-260" y="55" width="70" height="30" as="geometry" />
        </mxCell>
        <mxCell id="Ed32em5z93W1DroC9NEO-22" value="" style="endArrow=none;html=1;rounded=0;exitX=0;exitY=0;exitDx=0;exitDy=0;entryX=1;entryY=1;entryDx=0;entryDy=0;" edge="1" parent="1" source="Ed32em5z93W1DroC9NEO-5" target="Ed32em5z93W1DroC9NEO-16">
          <mxGeometry width="50" height="50" relative="1" as="geometry">
            <mxPoint x="-200" y="115" as="sourcePoint" />
            <mxPoint x="-150" y="65" as="targetPoint" />
          </mxGeometry>
        </mxCell>
        <mxCell id="Ed32em5z93W1DroC9NEO-24" value="Airline name" style="ellipse;whiteSpace=wrap;html=1;align=center;" vertex="1" parent="1">
          <mxGeometry x="-180" y="35" width="100" height="40" as="geometry" />
        </mxCell>
        <mxCell id="Ed32em5z93W1DroC9NEO-25" value="Airport name" style="ellipse;whiteSpace=wrap;html=1;align=center;" vertex="1" parent="1">
          <mxGeometry x="670" y="25" width="80" height="40" as="geometry" />
        </mxCell>
        <mxCell id="Ed32em5z93W1DroC9NEO-27" value="AID" style="ellipse;whiteSpace=wrap;html=1;align=center;fontStyle=4;" vertex="1" parent="1">
          <mxGeometry x="600" y="30" width="60" height="30" as="geometry" />
        </mxCell>
        <mxCell id="Ed32em5z93W1DroC9NEO-28" value="Country" style="ellipse;whiteSpace=wrap;html=1;align=center;" vertex="1" parent="1">
          <mxGeometry x="520" y="30" width="60" height="30" as="geometry" />
        </mxCell>
        <mxCell id="Ed32em5z93W1DroC9NEO-29" value="City" style="ellipse;whiteSpace=wrap;html=1;align=center;" vertex="1" parent="1">
          <mxGeometry x="765" y="35" width="60" height="20" as="geometry" />
        </mxCell>
        <mxCell id="Ed32em5z93W1DroC9NEO-32" value="" style="endArrow=none;html=1;rounded=0;entryX=0.353;entryY=0.002;entryDx=0;entryDy=0;entryPerimeter=0;exitX=0.5;exitY=1;exitDx=0;exitDy=0;" edge="1" parent="1" source="Ed32em5z93W1DroC9NEO-24" target="Ed32em5z93W1DroC9NEO-5">
          <mxGeometry relative="1" as="geometry">
            <mxPoint x="-110" y="75" as="sourcePoint" />
            <mxPoint x="50" y="75" as="targetPoint" />
          </mxGeometry>
        </mxCell>
        <mxCell id="Ed32em5z93W1DroC9NEO-35" value="" style="endArrow=none;html=1;rounded=0;entryX=0;entryY=0;entryDx=0;entryDy=0;exitX=1;exitY=1;exitDx=0;exitDy=0;" edge="1" parent="1" source="Ed32em5z93W1DroC9NEO-28" target="Ed32em5z93W1DroC9NEO-1">
          <mxGeometry relative="1" as="geometry">
            <mxPoint x="525" y="100" as="sourcePoint" />
            <mxPoint x="685" y="100" as="targetPoint" />
          </mxGeometry>
        </mxCell>
        <mxCell id="Ed32em5z93W1DroC9NEO-36" value="" style="endArrow=none;html=1;rounded=0;entryX=0.25;entryY=0;entryDx=0;entryDy=0;exitX=0.5;exitY=1;exitDx=0;exitDy=0;" edge="1" parent="1" source="Ed32em5z93W1DroC9NEO-27" target="Ed32em5z93W1DroC9NEO-1">
          <mxGeometry relative="1" as="geometry">
            <mxPoint x="571" y="65" as="sourcePoint" />
            <mxPoint x="630" y="84" as="targetPoint" />
          </mxGeometry>
        </mxCell>
        <mxCell id="Ed32em5z93W1DroC9NEO-37" value="" style="endArrow=none;html=1;rounded=0;entryX=0.5;entryY=0;entryDx=0;entryDy=0;exitX=0.5;exitY=1;exitDx=0;exitDy=0;" edge="1" parent="1" source="Ed32em5z93W1DroC9NEO-25" target="Ed32em5z93W1DroC9NEO-1">
          <mxGeometry relative="1" as="geometry">
            <mxPoint x="680" y="80" as="sourcePoint" />
            <mxPoint x="720" y="89" as="targetPoint" />
          </mxGeometry>
        </mxCell>
        <mxCell id="Ed32em5z93W1DroC9NEO-38" value="" style="endArrow=none;html=1;rounded=0;entryX=0.954;entryY=0.005;entryDx=0;entryDy=0;entryPerimeter=0;exitX=0.5;exitY=1;exitDx=0;exitDy=0;" edge="1" parent="1" source="Ed32em5z93W1DroC9NEO-29" target="Ed32em5z93W1DroC9NEO-1">
          <mxGeometry relative="1" as="geometry">
            <mxPoint x="770" y="60" as="sourcePoint" />
            <mxPoint x="930" y="60" as="targetPoint" />
          </mxGeometry>
        </mxCell>
        <mxCell id="Ed32em5z93W1DroC9NEO-40" value="status" style="ellipse;whiteSpace=wrap;html=1;align=center;" vertex="1" parent="1">
          <mxGeometry x="150" y="-5" width="60" height="40" as="geometry" />
        </mxCell>
        <mxCell id="Ed32em5z93W1DroC9NEO-42" value="Arrival time" style="ellipse;whiteSpace=wrap;html=1;align=center;" vertex="1" parent="1">
          <mxGeometry x="10" y="30" width="70" height="40" as="geometry" />
        </mxCell>
        <mxCell id="Ed32em5z93W1DroC9NEO-43" value="Flight date" style="ellipse;whiteSpace=wrap;html=1;align=center;" vertex="1" parent="1">
          <mxGeometry x="222.03" y="10" width="70" height="40" as="geometry" />
        </mxCell>
        <mxCell id="Ed32em5z93W1DroC9NEO-44" value="Departure time" style="ellipse;whiteSpace=wrap;html=1;align=center;" vertex="1" parent="1">
          <mxGeometry x="300" y="17.5" width="70" height="40" as="geometry" />
        </mxCell>
        <mxCell id="Ed32em5z93W1DroC9NEO-47" value="FID" style="ellipse;whiteSpace=wrap;html=1;align=center;fontStyle=4;" vertex="1" parent="1">
          <mxGeometry x="90.00000000000003" y="10" width="60" height="45" as="geometry" />
        </mxCell>
        <mxCell id="Ed32em5z93W1DroC9NEO-48" value="" style="endArrow=none;html=1;rounded=0;exitX=0.5;exitY=1;exitDx=0;exitDy=0;entryX=0;entryY=0;entryDx=0;entryDy=0;" edge="1" parent="1" source="Ed32em5z93W1DroC9NEO-47" target="Ed32em5z93W1DroC9NEO-9">
          <mxGeometry relative="1" as="geometry">
            <mxPoint x="-119.99999999999997" y="210" as="sourcePoint" />
            <mxPoint x="40.00000000000003" y="210" as="targetPoint" />
            <Array as="points" />
          </mxGeometry>
        </mxCell>
        <mxCell id="Ed32em5z93W1DroC9NEO-49" value="" style="endArrow=none;html=1;rounded=0;exitX=0.41;exitY=1.062;exitDx=0;exitDy=0;entryX=0.5;entryY=0;entryDx=0;entryDy=0;exitPerimeter=0;" edge="1" parent="1" source="Ed32em5z93W1DroC9NEO-43" target="Ed32em5z93W1DroC9NEO-9">
          <mxGeometry relative="1" as="geometry">
            <mxPoint x="150.00000000000003" y="70" as="sourcePoint" />
            <mxPoint x="170.00000000000003" y="90" as="targetPoint" />
            <Array as="points" />
          </mxGeometry>
        </mxCell>
        <mxCell id="Ed32em5z93W1DroC9NEO-50" value="" style="endArrow=none;html=1;rounded=0;exitX=0;exitY=1;exitDx=0;exitDy=0;entryX=1;entryY=0;entryDx=0;entryDy=0;" edge="1" parent="1" source="Ed32em5z93W1DroC9NEO-44" target="Ed32em5z93W1DroC9NEO-9">
          <mxGeometry relative="1" as="geometry">
            <mxPoint x="233.00000000000003" y="62" as="sourcePoint" />
            <mxPoint x="230.00000000000003" y="90" as="targetPoint" />
            <Array as="points" />
          </mxGeometry>
        </mxCell>
        <mxCell id="Ed32em5z93W1DroC9NEO-51" value="" style="endArrow=none;html=1;rounded=0;exitX=1;exitY=1;exitDx=0;exitDy=0;entryX=0;entryY=0.25;entryDx=0;entryDy=0;" edge="1" parent="1" source="Ed32em5z93W1DroC9NEO-42" target="Ed32em5z93W1DroC9NEO-9">
          <mxGeometry relative="1" as="geometry">
            <mxPoint x="243.00000000000003" y="72" as="sourcePoint" />
            <mxPoint x="240.00000000000003" y="100" as="targetPoint" />
            <Array as="points" />
          </mxGeometry>
        </mxCell>
        <mxCell id="Ed32em5z93W1DroC9NEO-54" value="" style="endArrow=none;html=1;rounded=0;entryX=0.5;entryY=1;entryDx=0;entryDy=0;exitX=0.25;exitY=0;exitDx=0;exitDy=0;" edge="1" parent="1" source="Ed32em5z93W1DroC9NEO-9" target="Ed32em5z93W1DroC9NEO-40">
          <mxGeometry relative="1" as="geometry">
            <mxPoint x="292" y="160" as="sourcePoint" />
            <mxPoint x="250.00000000000003" y="110" as="targetPoint" />
            <Array as="points" />
          </mxGeometry>
        </mxCell>
        <mxCell id="Ed32em5z93W1DroC9NEO-55" value="ArID" style="ellipse;whiteSpace=wrap;html=1;align=center;fontStyle=4;" vertex="1" parent="1">
          <mxGeometry x="-420" y="250" width="60" height="40" as="geometry" />
        </mxCell>
        <mxCell id="Ed32em5z93W1DroC9NEO-56" value="Type name" style="ellipse;whiteSpace=wrap;html=1;align=center;" vertex="1" parent="1">
          <mxGeometry x="-470" y="505" width="70" height="40" as="geometry" />
        </mxCell>
        <mxCell id="Ed32em5z93W1DroC9NEO-57" value="Mfg date" style="ellipse;whiteSpace=wrap;html=1;align=center;" vertex="1" parent="1">
          <mxGeometry x="-420" y="365" width="70" height="40" as="geometry" />
        </mxCell>
        <mxCell id="Ed32em5z93W1DroC9NEO-58" value="Capacity" style="ellipse;whiteSpace=wrap;html=1;align=center;" vertex="1" parent="1">
          <mxGeometry x="-470" y="560" width="70" height="40" as="geometry" />
        </mxCell>
        <mxCell id="Ed32em5z93W1DroC9NEO-59" value="" style="endArrow=none;html=1;rounded=0;exitX=1;exitY=0;exitDx=0;exitDy=0;entryX=0;entryY=1;entryDx=0;entryDy=0;" edge="1" parent="1" source="Ed32em5z93W1DroC9NEO-57" target="Ed32em5z93W1DroC9NEO-10">
          <mxGeometry relative="1" as="geometry">
            <mxPoint x="-170" y="380" as="sourcePoint" />
            <mxPoint x="-10" y="380" as="targetPoint" />
          </mxGeometry>
        </mxCell>
        <mxCell id="Ed32em5z93W1DroC9NEO-60" value="" style="endArrow=none;html=1;rounded=0;exitX=1;exitY=0.5;exitDx=0;exitDy=0;entryX=0;entryY=0.25;entryDx=0;entryDy=0;" edge="1" parent="1" source="Ed32em5z93W1DroC9NEO-56" target="Ed32em5z93W1DroC9NEO-11">
          <mxGeometry relative="1" as="geometry">
            <mxPoint x="-310" y="436" as="sourcePoint" />
            <mxPoint x="-280" y="410" as="targetPoint" />
          </mxGeometry>
        </mxCell>
        <mxCell id="Ed32em5z93W1DroC9NEO-61" value="" style="endArrow=none;html=1;rounded=0;exitX=1;exitY=0.5;exitDx=0;exitDy=0;entryX=0;entryY=0.5;entryDx=0;entryDy=0;" edge="1" parent="1" source="Ed32em5z93W1DroC9NEO-58" target="Ed32em5z93W1DroC9NEO-11">
          <mxGeometry relative="1" as="geometry">
            <mxPoint x="-300" y="446" as="sourcePoint" />
            <mxPoint x="-270" y="420" as="targetPoint" />
          </mxGeometry>
        </mxCell>
        <mxCell id="Ed32em5z93W1DroC9NEO-62" value="" style="endArrow=none;html=1;rounded=0;exitX=1;exitY=1;exitDx=0;exitDy=0;entryX=0;entryY=0;entryDx=0;entryDy=0;" edge="1" parent="1" source="Ed32em5z93W1DroC9NEO-55" target="Ed32em5z93W1DroC9NEO-10">
          <mxGeometry relative="1" as="geometry">
            <mxPoint x="-390" y="320" as="sourcePoint" />
            <mxPoint x="-280" y="320" as="targetPoint" />
          </mxGeometry>
        </mxCell>
        <mxCell id="Ed32em5z93W1DroC9NEO-64" value="TID" style="ellipse;whiteSpace=wrap;html=1;align=center;fontStyle=4;" vertex="1" parent="1">
          <mxGeometry x="553.6600000000001" y="450" width="70" height="50" as="geometry" />
        </mxCell>
        <mxCell id="Ed32em5z93W1DroC9NEO-65" value="Status" style="ellipse;whiteSpace=wrap;html=1;align=center;" vertex="1" parent="1">
          <mxGeometry x="850" y="425" width="65" height="40" as="geometry" />
        </mxCell>
        <mxCell id="Ed32em5z93W1DroC9NEO-66" value="Price" style="ellipse;whiteSpace=wrap;html=1;align=center;" vertex="1" parent="1">
          <mxGeometry x="633.6600000000001" y="480" width="65" height="40" as="geometry" />
        </mxCell>
        <mxCell id="Ed32em5z93W1DroC9NEO-67" value="Seat number" style="ellipse;whiteSpace=wrap;html=1;align=center;" vertex="1" parent="1">
          <mxGeometry x="708.6600000000001" y="480" width="65" height="40" as="geometry" />
        </mxCell>
        <mxCell id="Ed32em5z93W1DroC9NEO-68" value="Fare class" style="ellipse;whiteSpace=wrap;html=1;align=center;" vertex="1" parent="1">
          <mxGeometry x="783.85" y="485" width="65" height="40" as="geometry" />
        </mxCell>
        <mxCell id="Ed32em5z93W1DroC9NEO-70" value="" style="endArrow=none;html=1;rounded=0;exitX=1;exitY=0.75;exitDx=0;exitDy=0;entryX=0;entryY=0;entryDx=0;entryDy=0;" edge="1" parent="1" source="Ed32em5z93W1DroC9NEO-7" target="Ed32em5z93W1DroC9NEO-65">
          <mxGeometry relative="1" as="geometry">
            <mxPoint x="713.6600000000001" y="350" as="sourcePoint" />
            <mxPoint x="873.6600000000001" y="350" as="targetPoint" />
          </mxGeometry>
        </mxCell>
        <mxCell id="Ed32em5z93W1DroC9NEO-71" value="" style="endArrow=none;html=1;rounded=0;exitX=0;exitY=1;exitDx=0;exitDy=0;entryX=0.721;entryY=0.07;entryDx=0;entryDy=0;entryPerimeter=0;" edge="1" parent="1" source="Ed32em5z93W1DroC9NEO-7" target="Ed32em5z93W1DroC9NEO-64">
          <mxGeometry relative="1" as="geometry">
            <mxPoint x="653.6600000000001" y="405" as="sourcePoint" />
            <mxPoint x="608.6600000000001" y="420" as="targetPoint" />
          </mxGeometry>
        </mxCell>
        <mxCell id="Ed32em5z93W1DroC9NEO-73" value="" style="endArrow=none;html=1;rounded=0;exitX=0.25;exitY=1;exitDx=0;exitDy=0;entryX=0.426;entryY=0.034;entryDx=0;entryDy=0;entryPerimeter=0;" edge="1" parent="1" source="Ed32em5z93W1DroC9NEO-7" target="Ed32em5z93W1DroC9NEO-66">
          <mxGeometry relative="1" as="geometry">
            <mxPoint x="653.6600000000001" y="420" as="sourcePoint" />
            <mxPoint x="614.6600000000001" y="459" as="targetPoint" />
            <Array as="points" />
          </mxGeometry>
        </mxCell>
        <mxCell id="Ed32em5z93W1DroC9NEO-74" value="" style="endArrow=none;html=1;rounded=0;exitX=0.75;exitY=1;exitDx=0;exitDy=0;entryX=0.5;entryY=0;entryDx=0;entryDy=0;" edge="1" parent="1" source="Ed32em5z93W1DroC9NEO-7" target="Ed32em5z93W1DroC9NEO-67">
          <mxGeometry relative="1" as="geometry">
            <mxPoint x="663.6600000000001" y="430" as="sourcePoint" />
            <mxPoint x="624.6600000000001" y="469" as="targetPoint" />
          </mxGeometry>
        </mxCell>
        <mxCell id="Ed32em5z93W1DroC9NEO-76" value="" style="endArrow=none;html=1;rounded=0;exitX=1;exitY=1;exitDx=0;exitDy=0;entryX=0;entryY=0;entryDx=0;entryDy=0;" edge="1" parent="1" source="Ed32em5z93W1DroC9NEO-7" target="Ed32em5z93W1DroC9NEO-68">
          <mxGeometry relative="1" as="geometry">
            <mxPoint x="673.6600000000001" y="440" as="sourcePoint" />
            <mxPoint x="795.8578617776345" y="485.74866361102113" as="targetPoint" />
          </mxGeometry>
        </mxCell>
        <mxCell id="Ed32em5z93W1DroC9NEO-77" value="Lname" style="ellipse;whiteSpace=wrap;html=1;align=center;" vertex="1" parent="1">
          <mxGeometry x="-60" y="340" width="60" height="50" as="geometry" />
        </mxCell>
        <mxCell id="Ed32em5z93W1DroC9NEO-78" value="PID" style="ellipse;whiteSpace=wrap;html=1;align=center;fontStyle=4;" vertex="1" parent="1">
          <mxGeometry x="29.99999999999997" y="305" width="65" height="40" as="geometry" />
        </mxCell>
        <mxCell id="Ed32em5z93W1DroC9NEO-79" value="name" style="ellipse;whiteSpace=wrap;html=1;align=center;" vertex="1" parent="1">
          <mxGeometry x="30" y="365" width="60" height="50" as="geometry" />
        </mxCell>
        <mxCell id="Ed32em5z93W1DroC9NEO-80" value="Fname" style="ellipse;whiteSpace=wrap;html=1;align=center;" vertex="1" parent="1">
          <mxGeometry x="-70" y="410" width="55" height="50" as="geometry" />
        </mxCell>
        <mxCell id="Ed32em5z93W1DroC9NEO-81" value="Gender" style="ellipse;whiteSpace=wrap;html=1;align=center;" vertex="1" parent="1">
          <mxGeometry x="267.03" y="460" width="55" height="40" as="geometry" />
        </mxCell>
        <mxCell id="Ed32em5z93W1DroC9NEO-82" value="Address" style="ellipse;whiteSpace=wrap;html=1;align=center;" vertex="1" parent="1">
          <mxGeometry x="60" y="515" width="65" height="50" as="geometry" />
        </mxCell>
        <mxCell id="Ed32em5z93W1DroC9NEO-83" value="Age" style="ellipse;whiteSpace=wrap;html=1;align=center;" vertex="1" parent="1">
          <mxGeometry x="15" y="465" width="60" height="40" as="geometry" />
        </mxCell>
        <mxCell id="Ed32em5z93W1DroC9NEO-84" value="Nationality" style="ellipse;whiteSpace=wrap;html=1;align=center;" vertex="1" parent="1">
          <mxGeometry x="125" y="565" width="70" height="40" as="geometry" />
        </mxCell>
        <mxCell id="Ed32em5z93W1DroC9NEO-85" value="Passport no." style="ellipse;whiteSpace=wrap;html=1;align=center;" vertex="1" parent="1">
          <mxGeometry x="172.03" y="455" width="70" height="50" as="geometry" />
        </mxCell>
        <mxCell id="Ed32em5z93W1DroC9NEO-86" value="Phone number" style="ellipse;shape=doubleEllipse;margin=3;whiteSpace=wrap;html=1;align=center;" vertex="1" parent="1">
          <mxGeometry x="242.03" y="545" width="80" height="50" as="geometry" />
        </mxCell>
        <mxCell id="Ed32em5z93W1DroC9NEO-87" value="" style="endArrow=none;html=1;rounded=0;exitX=0;exitY=0;exitDx=0;exitDy=0;entryX=1;entryY=1;entryDx=0;entryDy=0;" edge="1" parent="1" source="Ed32em5z93W1DroC9NEO-8" target="Ed32em5z93W1DroC9NEO-78">
          <mxGeometry relative="1" as="geometry">
            <mxPoint x="22.5" y="395" as="sourcePoint" />
            <mxPoint x="292.5" y="345" as="targetPoint" />
          </mxGeometry>
        </mxCell>
        <mxCell id="Ed32em5z93W1DroC9NEO-88" value="" style="endArrow=none;html=1;rounded=0;exitX=0.5;exitY=0;exitDx=0;exitDy=0;entryX=0.25;entryY=1;entryDx=0;entryDy=0;" edge="1" parent="1" source="Ed32em5z93W1DroC9NEO-82" target="Ed32em5z93W1DroC9NEO-8">
          <mxGeometry relative="1" as="geometry">
            <mxPoint x="22.5" y="375" as="sourcePoint" />
            <mxPoint x="137.5" y="415" as="targetPoint" />
          </mxGeometry>
        </mxCell>
        <mxCell id="Ed32em5z93W1DroC9NEO-90" value="" style="endArrow=none;html=1;rounded=0;entryX=0;entryY=1;entryDx=0;entryDy=0;exitX=0.5;exitY=0;exitDx=0;exitDy=0;" edge="1" parent="1" source="Ed32em5z93W1DroC9NEO-83" target="Ed32em5z93W1DroC9NEO-8">
          <mxGeometry relative="1" as="geometry">
            <mxPoint x="22.5" y="375" as="sourcePoint" />
            <mxPoint x="182.5" y="375" as="targetPoint" />
          </mxGeometry>
        </mxCell>
        <mxCell id="Ed32em5z93W1DroC9NEO-91" value="" style="endArrow=none;html=1;rounded=0;entryX=0.25;entryY=1;entryDx=0;entryDy=0;exitX=0.5;exitY=0;exitDx=0;exitDy=0;" edge="1" parent="1" source="Ed32em5z93W1DroC9NEO-84" target="Ed32em5z93W1DroC9NEO-8">
          <mxGeometry relative="1" as="geometry">
            <mxPoint x="22.5" y="375" as="sourcePoint" />
            <mxPoint x="182.5" y="375" as="targetPoint" />
          </mxGeometry>
        </mxCell>
        <mxCell id="Ed32em5z93W1DroC9NEO-92" value="" style="endArrow=none;html=1;rounded=0;entryX=0.5;entryY=1;entryDx=0;entryDy=0;exitX=0.5;exitY=0;exitDx=0;exitDy=0;" edge="1" parent="1" source="Ed32em5z93W1DroC9NEO-85" target="Ed32em5z93W1DroC9NEO-8">
          <mxGeometry relative="1" as="geometry">
            <mxPoint x="22.5" y="375" as="sourcePoint" />
            <mxPoint x="182.5" y="375" as="targetPoint" />
          </mxGeometry>
        </mxCell>
        <mxCell id="Ed32em5z93W1DroC9NEO-93" value="" style="endArrow=none;html=1;rounded=0;entryX=0.75;entryY=1;entryDx=0;entryDy=0;exitX=0.5;exitY=0;exitDx=0;exitDy=0;" edge="1" parent="1" source="Ed32em5z93W1DroC9NEO-86" target="Ed32em5z93W1DroC9NEO-8">
          <mxGeometry relative="1" as="geometry">
            <mxPoint x="22.5" y="375" as="sourcePoint" />
            <mxPoint x="182.5" y="375" as="targetPoint" />
          </mxGeometry>
        </mxCell>
        <mxCell id="Ed32em5z93W1DroC9NEO-94" value="" style="endArrow=none;html=1;rounded=0;entryX=1;entryY=1;entryDx=0;entryDy=0;exitX=0;exitY=0;exitDx=0;exitDy=0;" edge="1" parent="1" source="Ed32em5z93W1DroC9NEO-81" target="Ed32em5z93W1DroC9NEO-8">
          <mxGeometry relative="1" as="geometry">
            <mxPoint x="22.5" y="375" as="sourcePoint" />
            <mxPoint x="182.5" y="375" as="targetPoint" />
          </mxGeometry>
        </mxCell>
        <mxCell id="Ed32em5z93W1DroC9NEO-95" value="" style="endArrow=none;html=1;rounded=0;entryX=0;entryY=0.5;entryDx=0;entryDy=0;exitX=1;exitY=0.5;exitDx=0;exitDy=0;" edge="1" parent="1" source="Ed32em5z93W1DroC9NEO-79" target="Ed32em5z93W1DroC9NEO-8">
          <mxGeometry relative="1" as="geometry">
            <mxPoint x="22.5" y="375" as="sourcePoint" />
            <mxPoint x="182.5" y="375" as="targetPoint" />
          </mxGeometry>
        </mxCell>
        <mxCell id="Ed32em5z93W1DroC9NEO-96" value="" style="endArrow=none;html=1;rounded=0;entryX=1;entryY=0.5;entryDx=0;entryDy=0;exitX=0;exitY=1;exitDx=0;exitDy=0;" edge="1" parent="1" source="Ed32em5z93W1DroC9NEO-79" target="Ed32em5z93W1DroC9NEO-80">
          <mxGeometry relative="1" as="geometry">
            <mxPoint x="-298.75" y="374.23" as="sourcePoint" />
            <mxPoint x="-138.75" y="374.23" as="targetPoint" />
          </mxGeometry>
        </mxCell>
        <mxCell id="Ed32em5z93W1DroC9NEO-97" value="" style="endArrow=none;html=1;rounded=0;entryX=1;entryY=0.5;entryDx=0;entryDy=0;exitX=0.049;exitY=0.362;exitDx=0;exitDy=0;exitPerimeter=0;" edge="1" parent="1" source="Ed32em5z93W1DroC9NEO-79" target="Ed32em5z93W1DroC9NEO-77">
          <mxGeometry relative="1" as="geometry">
            <mxPoint x="-298.75" y="374.23" as="sourcePoint" />
            <mxPoint x="-138.75" y="374.23" as="targetPoint" />
          </mxGeometry>
        </mxCell>
        <mxCell id="Ed32em5z93W1DroC9NEO-98" value="Origin" style="shape=rhombus;perimeter=rhombusPerimeter;whiteSpace=wrap;html=1;align=center;" vertex="1" parent="1">
          <mxGeometry x="412.5" y="140" width="80" height="60" as="geometry" />
        </mxCell>
        <mxCell id="Ed32em5z93W1DroC9NEO-99" value="Destination" style="shape=rhombus;perimeter=rhombusPerimeter;whiteSpace=wrap;html=1;align=center;" vertex="1" parent="1">
          <mxGeometry x="400" y="55" width="100" height="50" as="geometry" />
        </mxCell>
        <mxCell id="Ed32em5z93W1DroC9NEO-100" value="" style="endArrow=none;html=1;rounded=0;exitX=0;exitY=0.5;exitDx=0;exitDy=0;entryX=1;entryY=0.5;entryDx=0;entryDy=0;" edge="1" parent="1" source="Ed32em5z93W1DroC9NEO-98" target="Ed32em5z93W1DroC9NEO-9">
          <mxGeometry relative="1" as="geometry">
            <mxPoint x="767.5" y="265" as="sourcePoint" />
            <mxPoint x="927.5" y="265" as="targetPoint" />
          </mxGeometry>
        </mxCell>
        <mxCell id="Ed32em5z93W1DroC9NEO-101" value="1" style="resizable=0;html=1;whiteSpace=wrap;align=right;verticalAlign=bottom;" connectable="0" vertex="1" parent="Ed32em5z93W1DroC9NEO-100">
          <mxGeometry x="1" relative="1" as="geometry">
            <mxPoint x="268" y="-40" as="offset" />
          </mxGeometry>
        </mxCell>
        <mxCell id="Ed32em5z93W1DroC9NEO-102" value="" style="endArrow=none;html=1;rounded=0;exitX=1;exitY=0.5;exitDx=0;exitDy=0;entryX=0;entryY=0.5;entryDx=0;entryDy=0;" edge="1" parent="1" source="Ed32em5z93W1DroC9NEO-98" target="Ed32em5z93W1DroC9NEO-1">
          <mxGeometry relative="1" as="geometry">
            <mxPoint x="360" y="260" as="sourcePoint" />
            <mxPoint x="520" y="260" as="targetPoint" />
          </mxGeometry>
        </mxCell>
        <mxCell id="Ed32em5z93W1DroC9NEO-103" value="N" style="resizable=0;html=1;whiteSpace=wrap;align=right;verticalAlign=bottom;" connectable="0" vertex="1" parent="Ed32em5z93W1DroC9NEO-102">
          <mxGeometry x="1" relative="1" as="geometry">
            <mxPoint x="-282" y="-30" as="offset" />
          </mxGeometry>
        </mxCell>
        <mxCell id="Ed32em5z93W1DroC9NEO-104" value="" style="endArrow=none;html=1;rounded=0;exitX=0;exitY=0.5;exitDx=0;exitDy=0;entryX=1;entryY=0.5;entryDx=0;entryDy=0;" edge="1" parent="1" source="Ed32em5z93W1DroC9NEO-1" target="Ed32em5z93W1DroC9NEO-99">
          <mxGeometry relative="1" as="geometry">
            <mxPoint x="767.5" y="265" as="sourcePoint" />
            <mxPoint x="927.5" y="265" as="targetPoint" />
          </mxGeometry>
        </mxCell>
        <mxCell id="Ed32em5z93W1DroC9NEO-105" value="1" style="resizable=0;html=1;whiteSpace=wrap;align=right;verticalAlign=bottom;" connectable="0" vertex="1" parent="Ed32em5z93W1DroC9NEO-104">
          <mxGeometry x="1" relative="1" as="geometry">
            <mxPoint x="80" y="90" as="offset" />
          </mxGeometry>
        </mxCell>
        <mxCell id="Ed32em5z93W1DroC9NEO-106" value="" style="endArrow=none;html=1;rounded=0;entryX=1;entryY=0.5;entryDx=0;entryDy=0;exitX=0;exitY=0.5;exitDx=0;exitDy=0;" edge="1" parent="1" source="Ed32em5z93W1DroC9NEO-99" target="Ed32em5z93W1DroC9NEO-9">
          <mxGeometry relative="1" as="geometry">
            <mxPoint x="360" y="260" as="sourcePoint" />
            <mxPoint x="520" y="260" as="targetPoint" />
          </mxGeometry>
        </mxCell>
        <mxCell id="Ed32em5z93W1DroC9NEO-107" value="N" style="resizable=0;html=1;whiteSpace=wrap;align=right;verticalAlign=bottom;" connectable="0" vertex="1" parent="Ed32em5z93W1DroC9NEO-106">
          <mxGeometry x="1" relative="1" as="geometry">
            <mxPoint x="58" y="50" as="offset" />
          </mxGeometry>
        </mxCell>
        <mxCell id="Ed32em5z93W1DroC9NEO-108" value="Owns" style="shape=rhombus;perimeter=rhombusPerimeter;whiteSpace=wrap;html=1;align=center;" vertex="1" parent="1">
          <mxGeometry x="-240" y="210" width="70" height="40" as="geometry" />
        </mxCell>
        <mxCell id="Ed32em5z93W1DroC9NEO-109" value="" style="endArrow=none;html=1;rounded=0;entryX=0.5;entryY=1;entryDx=0;entryDy=0;exitX=0.5;exitY=0;exitDx=0;exitDy=0;" edge="1" parent="1" source="Ed32em5z93W1DroC9NEO-108" target="Ed32em5z93W1DroC9NEO-5">
          <mxGeometry relative="1" as="geometry">
            <mxPoint x="-60" y="305" as="sourcePoint" />
            <mxPoint x="100" y="305" as="targetPoint" />
          </mxGeometry>
        </mxCell>
        <mxCell id="Ed32em5z93W1DroC9NEO-110" value="1" style="resizable=0;html=1;whiteSpace=wrap;align=right;verticalAlign=bottom;" connectable="0" vertex="1" parent="Ed32em5z93W1DroC9NEO-109">
          <mxGeometry x="1" relative="1" as="geometry">
            <mxPoint x="-5" y="50" as="offset" />
          </mxGeometry>
        </mxCell>
        <mxCell id="Ed32em5z93W1DroC9NEO-111" value="" style="endArrow=none;html=1;rounded=0;entryX=0.5;entryY=1;entryDx=0;entryDy=0;exitX=0.5;exitY=0;exitDx=0;exitDy=0;" edge="1" parent="1" source="Ed32em5z93W1DroC9NEO-10" target="Ed32em5z93W1DroC9NEO-108">
          <mxGeometry relative="1" as="geometry">
            <mxPoint x="-170" y="310" as="sourcePoint" />
            <mxPoint x="-10" y="310" as="targetPoint" />
          </mxGeometry>
        </mxCell>
        <mxCell id="Ed32em5z93W1DroC9NEO-112" value="N" style="resizable=0;html=1;whiteSpace=wrap;align=right;verticalAlign=bottom;" connectable="0" vertex="1" parent="Ed32em5z93W1DroC9NEO-111">
          <mxGeometry x="1" relative="1" as="geometry">
            <mxPoint x="25" y="40" as="offset" />
          </mxGeometry>
        </mxCell>
        <mxCell id="Ed32em5z93W1DroC9NEO-114" value="Book" style="shape=rhombus;perimeter=rhombusPerimeter;whiteSpace=wrap;html=1;align=center;" vertex="1" parent="1">
          <mxGeometry x="420" y="330" width="80" height="40" as="geometry" />
        </mxCell>
        <mxCell id="Ed32em5z93W1DroC9NEO-115" value="Cancel" style="shape=rhombus;perimeter=rhombusPerimeter;whiteSpace=wrap;html=1;align=center;" vertex="1" parent="1">
          <mxGeometry x="420" y="410" width="80" height="50" as="geometry" />
        </mxCell>
        <mxCell id="Ed32em5z93W1DroC9NEO-116" value="" style="endArrow=none;html=1;rounded=0;entryX=1;entryY=0.5;entryDx=0;entryDy=0;exitX=0;exitY=0.5;exitDx=0;exitDy=0;" edge="1" parent="1" source="Ed32em5z93W1DroC9NEO-7" target="Ed32em5z93W1DroC9NEO-114">
          <mxGeometry relative="1" as="geometry">
            <mxPoint x="791.35" y="415" as="sourcePoint" />
            <mxPoint x="851.35" y="340" as="targetPoint" />
            <Array as="points" />
          </mxGeometry>
        </mxCell>
        <mxCell id="Ed32em5z93W1DroC9NEO-117" value="N" style="resizable=0;html=1;whiteSpace=wrap;align=right;verticalAlign=bottom;" connectable="0" vertex="1" parent="Ed32em5z93W1DroC9NEO-116">
          <mxGeometry x="1" relative="1" as="geometry">
            <mxPoint x="60" y="5" as="offset" />
          </mxGeometry>
        </mxCell>
        <mxCell id="Ed32em5z93W1DroC9NEO-118" value="" style="endArrow=none;html=1;rounded=0;entryX=1;entryY=0.5;entryDx=0;entryDy=0;exitX=0;exitY=0.5;exitDx=0;exitDy=0;" edge="1" parent="1" source="Ed32em5z93W1DroC9NEO-114" target="Ed32em5z93W1DroC9NEO-8">
          <mxGeometry relative="1" as="geometry">
            <mxPoint x="52.5" y="360" as="sourcePoint" />
            <mxPoint x="72.5" y="435" as="targetPoint" />
          </mxGeometry>
        </mxCell>
        <mxCell id="Ed32em5z93W1DroC9NEO-119" value="1" style="resizable=0;html=1;whiteSpace=wrap;align=right;verticalAlign=bottom;" connectable="0" vertex="1" parent="Ed32em5z93W1DroC9NEO-118">
          <mxGeometry x="1" relative="1" as="geometry">
            <mxPoint x="93" y="-20" as="offset" />
          </mxGeometry>
        </mxCell>
        <mxCell id="Ed32em5z93W1DroC9NEO-124" value="" style="endArrow=none;html=1;rounded=0;entryX=0;entryY=0.5;entryDx=0;entryDy=0;exitX=1;exitY=0.5;exitDx=0;exitDy=0;" edge="1" parent="1" source="Ed32em5z93W1DroC9NEO-8" target="Ed32em5z93W1DroC9NEO-115">
          <mxGeometry relative="1" as="geometry">
            <mxPoint x="330" y="390" as="sourcePoint" />
            <mxPoint x="72.5" y="425" as="targetPoint" />
          </mxGeometry>
        </mxCell>
        <mxCell id="Ed32em5z93W1DroC9NEO-125" value="1" style="resizable=0;html=1;whiteSpace=wrap;align=right;verticalAlign=bottom;" connectable="0" vertex="1" parent="Ed32em5z93W1DroC9NEO-124">
          <mxGeometry x="1" relative="1" as="geometry">
            <mxPoint x="-80" as="offset" />
          </mxGeometry>
        </mxCell>
        <mxCell id="Ed32em5z93W1DroC9NEO-126" value="" style="endArrow=none;html=1;rounded=0;entryX=1;entryY=0.5;entryDx=0;entryDy=0;exitX=0;exitY=0.5;exitDx=0;exitDy=0;" edge="1" parent="1" source="Ed32em5z93W1DroC9NEO-7" target="Ed32em5z93W1DroC9NEO-115">
          <mxGeometry relative="1" as="geometry">
            <mxPoint x="640" y="380" as="sourcePoint" />
            <mxPoint x="851.35" y="410" as="targetPoint" />
          </mxGeometry>
        </mxCell>
        <mxCell id="Ed32em5z93W1DroC9NEO-127" value="N" style="resizable=0;html=1;whiteSpace=wrap;align=right;verticalAlign=bottom;" connectable="0" vertex="1" parent="Ed32em5z93W1DroC9NEO-126">
          <mxGeometry x="1" relative="1" as="geometry">
            <mxPoint x="70" y="-5" as="offset" />
          </mxGeometry>
        </mxCell>
        <mxCell id="Ed32em5z93W1DroC9NEO-128" value="has" style="shape=rhombus;perimeter=rhombusPerimeter;whiteSpace=wrap;html=1;align=center;" vertex="1" parent="1">
          <mxGeometry x="-10" y="110" width="90" height="50" as="geometry" />
        </mxCell>
        <mxCell id="Ed32em5z93W1DroC9NEO-129" value="" style="endArrow=none;html=1;rounded=0;exitX=1;exitY=0.5;exitDx=0;exitDy=0;entryX=0;entryY=0.5;entryDx=0;entryDy=0;" edge="1" parent="1" source="Ed32em5z93W1DroC9NEO-5" target="Ed32em5z93W1DroC9NEO-128">
          <mxGeometry relative="1" as="geometry">
            <mxPoint x="100" y="250" as="sourcePoint" />
            <mxPoint x="260" y="250" as="targetPoint" />
          </mxGeometry>
        </mxCell>
        <mxCell id="Ed32em5z93W1DroC9NEO-130" value="1" style="resizable=0;html=1;whiteSpace=wrap;align=right;verticalAlign=bottom;" connectable="0" vertex="1" parent="Ed32em5z93W1DroC9NEO-129">
          <mxGeometry x="1" relative="1" as="geometry">
            <mxPoint x="-20" y="-5" as="offset" />
          </mxGeometry>
        </mxCell>
        <mxCell id="Ed32em5z93W1DroC9NEO-131" value="" style="endArrow=none;html=1;rounded=0;exitX=1;exitY=0.5;exitDx=0;exitDy=0;entryX=-0.007;entryY=0.588;entryDx=0;entryDy=0;entryPerimeter=0;" edge="1" parent="1" source="Ed32em5z93W1DroC9NEO-128" target="Ed32em5z93W1DroC9NEO-9">
          <mxGeometry relative="1" as="geometry">
            <mxPoint x="100" y="250" as="sourcePoint" />
            <mxPoint x="260" y="250" as="targetPoint" />
          </mxGeometry>
        </mxCell>
        <mxCell id="Ed32em5z93W1DroC9NEO-132" value="N" style="resizable=0;html=1;whiteSpace=wrap;align=right;verticalAlign=bottom;" connectable="0" vertex="1" parent="Ed32em5z93W1DroC9NEO-131">
          <mxGeometry x="1" relative="1" as="geometry">
            <mxPoint x="-41" as="offset" />
          </mxGeometry>
        </mxCell>
        <mxCell id="Ed32em5z93W1DroC9NEO-133" style="edgeStyle=orthogonalEdgeStyle;rounded=0;orthogonalLoop=1;jettySize=auto;html=1;exitX=0.5;exitY=1;exitDx=0;exitDy=0;" edge="1" parent="1" source="Ed32em5z93W1DroC9NEO-80" target="Ed32em5z93W1DroC9NEO-80">
          <mxGeometry relative="1" as="geometry" />
        </mxCell>
        <mxCell id="Ed32em5z93W1DroC9NEO-134" value="Carries" style="shape=rhombus;perimeter=rhombusPerimeter;whiteSpace=wrap;html=1;align=center;" vertex="1" parent="1">
          <mxGeometry x="177.03" y="240" width="90" height="50" as="geometry" />
        </mxCell>
        <mxCell id="Ed32em5z93W1DroC9NEO-135" value="" style="endArrow=none;html=1;rounded=0;exitX=0.5;exitY=1;exitDx=0;exitDy=0;entryX=0.5;entryY=0;entryDx=0;entryDy=0;" edge="1" parent="1" source="Ed32em5z93W1DroC9NEO-9" target="Ed32em5z93W1DroC9NEO-134">
          <mxGeometry relative="1" as="geometry">
            <mxPoint x="230" y="330" as="sourcePoint" />
            <mxPoint x="390" y="330" as="targetPoint" />
          </mxGeometry>
        </mxCell>
        <mxCell id="Ed32em5z93W1DroC9NEO-136" value="1" style="resizable=0;html=1;whiteSpace=wrap;align=right;verticalAlign=bottom;" connectable="0" vertex="1" parent="Ed32em5z93W1DroC9NEO-135">
          <mxGeometry x="1" relative="1" as="geometry">
            <mxPoint y="-20" as="offset" />
          </mxGeometry>
        </mxCell>
        <mxCell id="Ed32em5z93W1DroC9NEO-137" value="" style="endArrow=none;html=1;rounded=0;exitX=0.5;exitY=1;exitDx=0;exitDy=0;entryX=0.5;entryY=0;entryDx=0;entryDy=0;" edge="1" parent="1" source="Ed32em5z93W1DroC9NEO-134" target="Ed32em5z93W1DroC9NEO-8">
          <mxGeometry relative="1" as="geometry">
            <mxPoint x="230" y="330" as="sourcePoint" />
            <mxPoint x="390" y="330" as="targetPoint" />
          </mxGeometry>
        </mxCell>
        <mxCell id="Ed32em5z93W1DroC9NEO-138" value="N" style="resizable=0;html=1;whiteSpace=wrap;align=right;verticalAlign=bottom;" connectable="0" vertex="1" parent="Ed32em5z93W1DroC9NEO-137">
          <mxGeometry x="1" relative="1" as="geometry">
            <mxPoint y="-30" as="offset" />
          </mxGeometry>
        </mxCell>
        <mxCell id="Ed32em5z93W1DroC9NEO-141" value="has" style="shape=rhombus;perimeter=rhombusPerimeter;whiteSpace=wrap;html=1;align=center;" vertex="1" parent="1">
          <mxGeometry x="-275" y="415" width="95" height="50" as="geometry" />
        </mxCell>
        <mxCell id="Ed32em5z93W1DroC9NEO-143" value="" style="endArrow=none;html=1;rounded=0;exitX=0.5;exitY=1;exitDx=0;exitDy=0;entryX=0.5;entryY=0;entryDx=0;entryDy=0;" edge="1" parent="1" source="Ed32em5z93W1DroC9NEO-141" target="Ed32em5z93W1DroC9NEO-11">
          <mxGeometry relative="1" as="geometry">
            <mxPoint x="-330" y="499" as="sourcePoint" />
            <mxPoint x="-170" y="499" as="targetPoint" />
          </mxGeometry>
        </mxCell>
        <mxCell id="Ed32em5z93W1DroC9NEO-144" value="1" style="resizable=0;html=1;whiteSpace=wrap;align=right;verticalAlign=bottom;" connectable="0" vertex="1" parent="Ed32em5z93W1DroC9NEO-143">
          <mxGeometry x="1" relative="1" as="geometry">
            <mxPoint x="-10" y="-15" as="offset" />
          </mxGeometry>
        </mxCell>
        <mxCell id="Ed32em5z93W1DroC9NEO-145" value="" style="endArrow=none;html=1;rounded=0;exitX=0.5;exitY=1;exitDx=0;exitDy=0;entryX=0.5;entryY=0;entryDx=0;entryDy=0;" edge="1" parent="1" source="Ed32em5z93W1DroC9NEO-10" target="Ed32em5z93W1DroC9NEO-141">
          <mxGeometry relative="1" as="geometry">
            <mxPoint x="-30" y="400" as="sourcePoint" />
            <mxPoint x="130" y="400" as="targetPoint" />
          </mxGeometry>
        </mxCell>
        <mxCell id="Ed32em5z93W1DroC9NEO-146" value="N" style="resizable=0;html=1;whiteSpace=wrap;align=right;verticalAlign=bottom;" connectable="0" vertex="1" parent="Ed32em5z93W1DroC9NEO-145">
          <mxGeometry x="1" relative="1" as="geometry">
            <mxPoint x="-12" y="-10" as="offset" />
          </mxGeometry>
        </mxCell>
      </root>
    </mxGraphModel>
  </diagram>
</mxfile>
